# xmcd
#
# Track frame offsets:
#	150
#	20954
#	39400
#	57691
#	76752
#	120866
#	140883
#	156864
#	178674
#	203440
#	221276
#	244609
#	268925
#	290054
#	309892
#
# Disc length: 4387 seconds
#
# Revision: 2
# Processed by: cddbd v1.5.1PL0 Copyright (c) Steve Scherf et al.
# Submitted via: MusicWizard 7.2.0
#
DISCID=d611210f
DTITLE=Ramazzotti Eros - Best Of
DYEAR=1900
DGENRE=
TTITLE0=Terra Promesa
TTITLE1=Una Storia Importante
TTITLE2=Adesso Tu
TTITLE3=Ma Che Bello Questo Amore
TTITLE4=Musica E'
TTITLE5=Piu Bella Cosa
TTITLE6=Memorie
TTITLE7=Cose Della Vita
TTITLE8=L' Aurora
TTITLE9=Ancora Un Minuto Di Sole
TTITLE10=Quasi Amore
TTITLE11=Se Bastasse Una Canzone
TTITLE12=Un' Altra Te
TTITLE13=Favola
TTITLE14=Quanto Amore Sei
EXTD=
EXTT0=
EXTT1=
EXTT2=
EXTT3=
EXTT4=
EXTT5=
EXTT6=
EXTT7=
EXTT8=
EXTT9=
EXTT10=
EXTT11=
EXTT12=
EXTT13=
EXTT14=
PLAYORDER=
